<mxfile host="Electron" agent="Mozilla/5.0 (X11; Linux x86_64) AppleWebKit/537.36 (KHTML, like Gecko) draw.io/28.0.6 Chrome/138.0.7204.100 Electron/37.2.3 Safari/537.36" version="28.0.6">
  <diagram name="Page-1" id="iObHFzJkKh79o8O5NkpX">
    <mxGraphModel dx="1426" dy="843" grid="1" gridSize="10" guides="1" tooltips="1" connect="1" arrows="1" fold="1" page="1" pageScale="1" pageWidth="900" pageHeight="1600" math="0" shadow="0">
      <root>
        <mxCell id="0" />
        <mxCell id="1" parent="0" />
        <mxCell id="i-nt5txmI-BnRrhlUNoV-2" value="Region" style="points=[[0,0],[0.25,0],[0.5,0],[0.75,0],[1,0],[1,0.25],[1,0.5],[1,0.75],[1,1],[0.75,1],[0.5,1],[0.25,1],[0,1],[0,0.75],[0,0.5],[0,0.25]];outlineConnect=0;gradientColor=none;html=1;whiteSpace=wrap;fontSize=12;fontStyle=0;container=1;pointerEvents=0;collapsible=0;recursiveResize=0;shape=mxgraph.aws4.group;grIcon=mxgraph.aws4.group_region;strokeColor=#00A4A6;fillColor=none;verticalAlign=top;align=left;spacingLeft=30;fontColor=#147EBA;dashed=1;" parent="1" vertex="1">
          <mxGeometry x="20" y="40" width="740" height="480" as="geometry" />
        </mxCell>
        <mxCell id="q8hy6h1uf2MHOgtayE40-10" value="" style="edgeStyle=orthogonalEdgeStyle;rounded=0;orthogonalLoop=1;jettySize=auto;html=1;strokeColor=default;startArrow=classic;startFill=1;" edge="1" parent="i-nt5txmI-BnRrhlUNoV-2" source="i-nt5txmI-BnRrhlUNoV-1" target="q8hy6h1uf2MHOgtayE40-6">
          <mxGeometry relative="1" as="geometry" />
        </mxCell>
        <mxCell id="i-nt5txmI-BnRrhlUNoV-1" value="VPC" style="points=[[0,0],[0.25,0],[0.5,0],[0.75,0],[1,0],[1,0.25],[1,0.5],[1,0.75],[1,1],[0.75,1],[0.5,1],[0.25,1],[0,1],[0,0.75],[0,0.5],[0,0.25]];outlineConnect=0;gradientColor=none;html=1;whiteSpace=wrap;fontSize=12;fontStyle=0;container=1;pointerEvents=0;collapsible=0;recursiveResize=0;shape=mxgraph.aws4.group;grIcon=mxgraph.aws4.group_vpc2;strokeColor=#8C4FFF;fillColor=none;verticalAlign=top;align=left;spacingLeft=30;fontColor=#AAB7B8;dashed=0;" parent="i-nt5txmI-BnRrhlUNoV-2" vertex="1">
          <mxGeometry x="41" y="80" width="440" height="320" as="geometry" />
        </mxCell>
        <mxCell id="i-nt5txmI-BnRrhlUNoV-11" value="Public subnet" style="points=[[0,0],[0.25,0],[0.5,0],[0.75,0],[1,0],[1,0.25],[1,0.5],[1,0.75],[1,1],[0.75,1],[0.5,1],[0.25,1],[0,1],[0,0.75],[0,0.5],[0,0.25]];outlineConnect=0;gradientColor=none;html=1;whiteSpace=wrap;fontSize=12;fontStyle=0;container=1;pointerEvents=0;collapsible=0;recursiveResize=0;shape=mxgraph.aws4.group;grIcon=mxgraph.aws4.group_security_group;grStroke=0;strokeColor=#7AA116;fillColor=#F2F6E8;verticalAlign=top;align=left;spacingLeft=30;fontColor=#248814;dashed=0;" parent="i-nt5txmI-BnRrhlUNoV-1" vertex="1">
          <mxGeometry x="120" y="40" width="209.5" height="229.5" as="geometry" />
        </mxCell>
        <mxCell id="q8hy6h1uf2MHOgtayE40-1" value="Security Group" style="rounded=1;arcSize=10;dashed=1;strokeColor=#ff0000;fillColor=none;gradientColor=none;dashPattern=8 4;strokeWidth=2;align=left;verticalAlign=top;fontColor=#000000;spacingLeft=5;" vertex="1" parent="i-nt5txmI-BnRrhlUNoV-11">
          <mxGeometry x="10" y="30" width="190" height="190" as="geometry" />
        </mxCell>
        <mxCell id="i-nt5txmI-BnRrhlUNoV-6" value="ami" style="sketch=0;points=[[0,0,0],[0.25,0,0],[0.5,0,0],[0.75,0,0],[1,0,0],[0,1,0],[0.25,1,0],[0.5,1,0],[0.75,1,0],[1,1,0],[0,0.25,0],[0,0.5,0],[0,0.75,0],[1,0.25,0],[1,0.5,0],[1,0.75,0]];outlineConnect=0;fontColor=#000000;fillColor=#ED7100;strokeColor=#ffffff;dashed=0;verticalLabelPosition=bottom;verticalAlign=top;align=center;html=1;fontSize=12;fontStyle=0;aspect=fixed;shape=mxgraph.aws4.resourceIcon;resIcon=mxgraph.aws4.ec2;" parent="i-nt5txmI-BnRrhlUNoV-11" vertex="1">
          <mxGeometry x="65.75" y="60" width="78" height="78" as="geometry" />
        </mxCell>
        <mxCell id="i-nt5txmI-BnRrhlUNoV-10" value="" style="sketch=0;outlineConnect=0;fontColor=#232F3E;gradientColor=none;fillColor=#DD344C;strokeColor=none;dashed=0;verticalLabelPosition=bottom;verticalAlign=top;align=center;html=1;fontSize=12;fontStyle=0;aspect=fixed;pointerEvents=1;shape=mxgraph.aws4.addon;rotation=-180;" parent="i-nt5txmI-BnRrhlUNoV-11" vertex="1">
          <mxGeometry x="65.75" y="160" width="78" height="40" as="geometry" />
        </mxCell>
        <mxCell id="q8hy6h1uf2MHOgtayE40-4" value="" style="endArrow=none;html=1;rounded=0;align=center;verticalAlign=top;endFill=0;labelBackgroundColor=none;endSize=2;strokeColor=#FF0000;" edge="1" parent="i-nt5txmI-BnRrhlUNoV-1">
          <mxGeometry relative="1" as="geometry">
            <mxPoint x="324" y="225" as="sourcePoint" />
            <mxPoint x="346.0000000000001" y="225" as="targetPoint" />
          </mxGeometry>
        </mxCell>
        <mxCell id="q8hy6h1uf2MHOgtayE40-5" value="" style="ellipse;html=1;fontSize=11;align=center;fillColor=none;points=[];aspect=fixed;resizable=0;verticalAlign=bottom;labelPosition=center;verticalLabelPosition=top;flipH=1;rotation=45;strokeColor=#FF0000;" vertex="1" parent="i-nt5txmI-BnRrhlUNoV-1">
          <mxGeometry x="316" y="221" width="8" height="8" as="geometry" />
        </mxCell>
        <mxCell id="q8hy6h1uf2MHOgtayE40-3" value="22" style="html=1;rounded=0;direction=east;strokeColor=#FF0000;" vertex="1" parent="i-nt5txmI-BnRrhlUNoV-1">
          <mxGeometry x="345" y="210" width="30" height="30" as="geometry" />
        </mxCell>
        <mxCell id="q8hy6h1uf2MHOgtayE40-7" value="" style="edgeStyle=orthogonalEdgeStyle;rounded=0;orthogonalLoop=1;jettySize=auto;html=1;startArrow=classic;startFill=1;" edge="1" parent="i-nt5txmI-BnRrhlUNoV-2" source="i-nt5txmI-BnRrhlUNoV-3" target="q8hy6h1uf2MHOgtayE40-6">
          <mxGeometry relative="1" as="geometry" />
        </mxCell>
        <mxCell id="i-nt5txmI-BnRrhlUNoV-3" value="&lt;font style=&quot;&quot;&gt;Internet Gateway&lt;/font&gt;" style="sketch=0;outlineConnect=0;fontColor=#FFFFFF;gradientColor=none;fillColor=#8C4FFF;strokeColor=none;dashed=0;verticalLabelPosition=bottom;verticalAlign=top;align=center;html=1;fontSize=12;fontStyle=0;aspect=fixed;pointerEvents=1;shape=mxgraph.aws4.internet_gateway;" parent="i-nt5txmI-BnRrhlUNoV-2" vertex="1">
          <mxGeometry x="620" y="201" width="78" height="78" as="geometry" />
        </mxCell>
        <mxCell id="q8hy6h1uf2MHOgtayE40-6" value="Routing Table" style="sketch=0;outlineConnect=0;fontColor=#FFFFFF;gradientColor=none;fillColor=#8C4FFF;strokeColor=none;dashed=0;verticalLabelPosition=bottom;verticalAlign=top;align=center;html=1;fontSize=12;fontStyle=0;aspect=fixed;pointerEvents=1;shape=mxgraph.aws4.route_table;" vertex="1" parent="i-nt5txmI-BnRrhlUNoV-2">
          <mxGeometry x="510" y="202" width="78" height="76" as="geometry" />
        </mxCell>
        <mxCell id="i-nt5txmI-BnRrhlUNoV-7" value="" style="sketch=0;outlineConnect=0;fontColor=#232F3E;gradientColor=none;fillColor=#DD344C;strokeColor=none;dashed=0;verticalLabelPosition=bottom;verticalAlign=top;align=center;html=1;fontSize=12;fontStyle=0;aspect=fixed;pointerEvents=1;shape=mxgraph.aws4.addon;" parent="1" vertex="1">
          <mxGeometry x="800" y="330" width="78" height="40" as="geometry" />
        </mxCell>
        <mxCell id="i-nt5txmI-BnRrhlUNoV-8" value="" style="sketch=0;outlineConnect=0;fontColor=#232F3E;gradientColor=none;fillColor=#FFFFFF;strokeColor=none;dashed=0;verticalLabelPosition=bottom;verticalAlign=top;align=center;html=1;fontSize=12;fontStyle=0;aspect=fixed;pointerEvents=1;shape=mxgraph.aws4.client;" parent="1" vertex="1">
          <mxGeometry x="800" y="242" width="78" height="76" as="geometry" />
        </mxCell>
        <mxCell id="i-nt5txmI-BnRrhlUNoV-9" value="" style="edgeStyle=orthogonalEdgeStyle;rounded=0;orthogonalLoop=1;jettySize=auto;html=1;startArrow=classic;startFill=1;" parent="1" source="i-nt5txmI-BnRrhlUNoV-8" target="i-nt5txmI-BnRrhlUNoV-3" edge="1">
          <mxGeometry relative="1" as="geometry" />
        </mxCell>
      </root>
    </mxGraphModel>
  </diagram>
</mxfile>
